<?xml version="1.0" encoding="utf-8"?>
<!-- Generator: Adobe Illustrator 25.4.1, SVG Export Plug-In . SVG Version: 6.00 Build 0)  -->
<svg version="1.1" id="Layer_1" xmlns="http://www.w3.org/2000/svg" xmlns:xlink="http://www.w3.org/1999/xlink" x="0px" y="0px"
	 viewBox="0 0 180 53.3" style="enable-background:new 0 0 180 53.3;" xml:space="preserve">
<style type="text/css">
	.st0{display:none;}
	.st1{display:inline;fill:#12110F;}
	.st2{display:inline;fill:#A2A1A0;}
	.st3{display:inline;fill:#FFFFFF;}
	.st4{display:inline;fill:#EA3232;}
	.st5{display:inline;fill:#F5B51A;}
	.st6{display:inline;fill:#5A78BB;}
	.st7{display:inline;fill:#3AAD49;}
	.st8{display:inline;fill:#FFFFFF;stroke:#FFFFFF;stroke-width:0.2667;stroke-miterlimit:10;}
	.st9{fill:#A6A5A5;}
	.st10{fill:#FFFFFF;}
</style>
<g class="st0">
	<path id="path11" class="st1" d="M173.3,53.3H6.7c-3.7,0-6.7-3-6.7-6.7v-40C0,3,3,0,6.7,0h166.7c3.7,0,6.7,3,6.7,6.7v40
		C180,50.3,177,53.3,173.3,53.3"/>
	<path id="path13" class="st2" d="M173.3,0H6.7C3,0,0,3,0,6.7v40c0,3.7,3,6.7,6.7,6.7h166.7c3.7,0,6.7-3,6.7-6.7v-40
		C180,3,177,0,173.3,0z M173.3,1.1c3.1,0,5.6,2.5,5.6,5.6v40c0,3.1-2.5,5.6-5.6,5.6H6.7c-3.1,0-5.6-2.5-5.6-5.6v-40
		c0-3.1,2.5-5.6,5.6-5.6L173.3,1.1"/>
	<path id="path35" class="st3" d="M142.6,40h2.5V23.3h-2.5V40z M165,29.3l-2.9,7.2H162l-3-7.2h-2.7l4.4,10.1l-2.5,5.6h2.6l6.8-15.7
		L165,29.3z M150.9,38.1c-0.8,0-2-0.4-2-1.4c0-1.3,1.4-1.8,2.6-1.8c1.1,0,1.6,0.2,2.3,0.6C153.6,37,152.3,38.1,150.9,38.1
		L150.9,38.1z M151.2,29c-1.8,0-3.7,0.8-4.4,2.6l2.2,0.9c0.5-0.9,1.4-1.2,2.3-1.2c1.3,0,2.6,0.8,2.6,2.1v0.2
		c-0.5-0.3-1.4-0.6-2.6-0.6c-2.4,0-4.8,1.3-4.8,3.8c0,2.2,2,3.7,4.1,3.7c1.7,0,2.6-0.8,3.2-1.6h0.1V40h2.4v-6.4
		C156.2,30.6,154,29,151.2,29L151.2,29z M135.8,31.4h-3.5v-5.7h3.5c1.9,0,2.9,1.5,2.9,2.9C138.7,29.8,137.7,31.4,135.8,31.4z
		 M135.7,23.3h-6V40h2.5v-6.3h3.5c2.8,0,5.5-2,5.5-5.2C141.2,25.3,138.5,23.3,135.7,23.3L135.7,23.3z M103.2,38.1
		c-1.7,0-3.2-1.4-3.2-3.4c0-2,1.4-3.5,3.2-3.5c1.7,0,3,1.5,3,3.5C106.3,36.7,104.9,38.1,103.2,38.1z M106.1,30.3L106.1,30.3
		c-0.6-0.7-1.7-1.3-3.1-1.3c-2.8,0-5.4,2.5-5.4,5.7c0,3.2,2.6,5.6,5.4,5.6c1.4,0,2.4-0.6,3-1.3h0.1v0.8c0,2.2-1.2,3.3-3,3.3
		c-1.5,0-2.5-1.1-2.9-2L98,42.1c0.6,1.5,2.3,3.4,5,3.4c2.9,0,5.4-1.7,5.4-5.9V29.3h-2.4L106.1,30.3z M110.2,40h2.5V23.3h-2.5V40z
		 M116.3,34.5c-0.1-2.2,1.7-3.3,3-3.3c1,0,1.8,0.5,2.1,1.2L116.3,34.5z M124.1,32.6c-0.5-1.3-1.9-3.6-4.9-3.6
		c-2.9,0-5.3,2.3-5.3,5.7c0,3.2,2.4,5.7,5.6,5.7c2.6,0,4.1-1.6,4.7-2.5l-1.9-1.3c-0.6,0.9-1.5,1.6-2.8,1.6c-1.3,0-2.2-0.6-2.7-1.7
		l7.6-3.1L124.1,32.6z M63.7,30.7v2.4h5.8c-0.2,1.4-0.6,2.3-1.3,3c-0.8,0.8-2.1,1.8-4.4,1.8c-3.5,0-6.3-2.9-6.3-6.4s2.8-6.4,6.3-6.4
		c1.9,0,3.3,0.8,4.3,1.7l1.7-1.7c-1.4-1.4-3.4-2.4-6-2.4c-4.9,0-8.9,4-8.9,8.8c0,4.9,4.1,8.8,8.9,8.8c2.6,0,4.6-0.9,6.1-2.5
		c1.6-1.6,2.1-3.8,2.1-5.6c0-0.6,0-1.1-0.1-1.5L63.7,30.7z M78.4,38.1c-1.7,0-3.2-1.4-3.2-3.4c0-2,1.5-3.4,3.2-3.4
		c1.7,0,3.2,1.4,3.2,3.4C81.6,36.7,80.1,38.1,78.4,38.1z M78.4,29c-3.1,0-5.7,2.4-5.7,5.7c0,3.3,2.6,5.7,5.7,5.7
		c3.1,0,5.7-2.4,5.7-5.7C84.1,31.4,81.6,29,78.4,29z M90.8,38.1c-1.7,0-3.2-1.4-3.2-3.4c0-2,1.5-3.4,3.2-3.4c1.7,0,3.2,1.4,3.2,3.4
		C94,36.7,92.6,38.1,90.8,38.1z M90.8,29c-3.1,0-5.7,2.4-5.7,5.7c0,3.3,2.6,5.7,5.7,5.7c3.1,0,5.7-2.4,5.7-5.7
		C96.5,31.4,94,29,90.8,29"/>
	<path id="path37" class="st4" d="M27.6,25.9L13.4,41c0,0,0,0,0,0c0.4,1.6,1.9,2.8,3.7,2.8c0.7,0,1.4-0.2,1.9-0.5l0,0l16-9.2
		L27.6,25.9"/>
	<path id="path39" class="st5" d="M42,23.3L42,23.3l-6.9-4l-7.8,6.9l7.8,7.8l6.9-4c1.2-0.6,2-1.9,2-3.4C44,25.2,43.2,24,42,23.3"/>
	<path id="path41" class="st6" d="M13.4,12.4c-0.1,0.3-0.1,0.6-0.1,1V40c0,0.3,0,0.7,0.1,1l14.7-14.7L13.4,12.4"/>
	<path id="path43" class="st7" d="M27.7,26.7l7.3-7.3l-16-9.3c-0.6-0.3-1.3-0.5-2-0.5c-1.8,0-3.3,1.2-3.7,2.8c0,0,0,0,0,0L27.7,26.7
		"/>
	<path id="path33" class="st8" d="M63.2,13h-3.9v1h2.9c-0.1,0.8-0.4,1.4-0.9,1.9c-0.5,0.4-1.2,0.7-2,0.7c-0.9,0-1.6-0.3-2.2-0.9
		c-0.6-0.6-0.9-1.4-0.9-2.3c0-0.9,0.3-1.7,0.9-2.3c0.6-0.6,1.3-0.9,2.2-0.9c0.4,0,0.9,0.1,1.3,0.2c0.4,0.2,0.7,0.4,1,0.7l0.7-0.7
		c-0.3-0.4-0.8-0.7-1.3-0.9c-0.5-0.2-1.1-0.3-1.7-0.3c-1.2,0-2.2,0.4-3,1.2c-0.8,0.8-1.2,1.8-1.2,3s0.4,2.2,1.2,3
		c0.8,0.8,1.8,1.2,3,1.2c1.2,0,2.2-0.4,2.9-1.2c0.7-0.7,1-1.6,1-2.7C63.2,13.5,63.2,13.3,63.2,13L63.2,13z M64.7,9.3v8h4.7v-1h-3.7
		v-2.5H69v-1h-3.3v-2.5h3.7v-1L64.7,9.3z M76,10.3v-1h-5.5v1h2.2v7h1v-7L76,10.3z M80.9,9.3h-1v8h1V9.3z M87.8,10.3v-1h-5.5v1h2.2v7
		h1v-7L87.8,10.3z M98.2,10.4c-0.8-0.8-1.8-1.2-2.9-1.2c-1.2,0-2.1,0.4-2.9,1.2c-0.8,0.8-1.2,1.8-1.2,3s0.4,2.2,1.2,3
		c0.8,0.8,1.8,1.2,2.9,1.2c1.2,0,2.1-0.4,2.9-1.2c0.8-0.8,1.2-1.8,1.2-3C99.3,12.1,99,11.1,98.2,10.4z M93,11
		c0.6-0.6,1.3-0.9,2.2-0.9c0.9,0,1.6,0.3,2.2,0.9c0.6,0.6,0.9,1.4,0.9,2.3c0,0.9-0.3,1.7-0.9,2.3c-0.6,0.6-1.3,0.9-2.2,0.9
		c-0.9,0-1.6-0.3-2.2-0.9c-0.6-0.6-0.9-1.4-0.9-2.3C92.2,12.4,92.4,11.6,93,11z M101.8,12.3l0-1.5h0l4.1,6.5h1.1v-8h-1V14l0,1.5h0
		L102,9.3h-1.3v8h1V12.3z"/>
</g>
<g>
	<path class="st9" d="M173.6,53.3H6.3C2.8,53.3,0,50.5,0,47V6.3C0,2.8,2.8,0,6.3,0h167.3c3.5,0,6.4,2.8,6.4,6.3V47
		C180,50.5,177.1,53.3,173.6,53.3L173.6,53.3z"/>
	<path d="M178.7,47c0,2.8-2.3,5.1-5.1,5.1H6.3c-2.8,0-5.1-2.3-5.1-5.1V6.3c0-2.8,2.3-5.1,5.1-5.1h167.3c2.8,0,5.1,2.3,5.1,5.1
		L178.7,47L178.7,47z"/>
	<g>
		<g>
			<path class="st10" d="M40.2,26.4c0-4.3,3.5-6.4,3.7-6.5c-2-2.9-5.1-3.3-6.2-3.4c-2.6-0.3-5.2,1.6-6.5,1.6c-1.4,0-3.4-1.5-5.6-1.5
				c-2.9,0-5.5,1.7-7,4.3c-3,5.2-0.8,12.9,2.1,17.1c1.4,2.1,3.1,4.4,5.4,4.3c2.2-0.1,3-1.4,5.6-1.4c2.6,0,3.4,1.4,5.6,1.3
				c2.3,0,3.8-2.1,5.2-4.2c1.7-2.4,2.3-4.7,2.4-4.8C44.7,33.2,40.2,31.5,40.2,26.4z"/>
			<path class="st10" d="M35.9,13.7c1.2-1.5,2-3.4,1.7-5.5c-1.7,0.1-3.8,1.2-5,2.6c-1.1,1.3-2,3.3-1.8,5.3
				C32.7,16.3,34.7,15.2,35.9,13.7z"/>
		</g>
	</g>
	<g>
		<path class="st10" d="M71.5,42h-3l-1.7-5.2h-5.8L59.5,42h-2.9l5.7-17.7h3.5L71.5,42z M66.3,34.6L64.8,30c-0.2-0.5-0.5-1.6-0.9-3.3
			h-0.1c-0.2,0.8-0.5,1.9-0.8,3.3l-1.5,4.6H66.3z"/>
		<path class="st10" d="M86.2,35.4c0,2.2-0.6,3.9-1.8,5.2c-1.1,1.1-2.4,1.7-3.9,1.7c-1.7,0-2.9-0.6-3.6-1.8h-0.1v6.7H74V33.4
			c0-1.4,0-2.8-0.1-4.2h2.5l0.2,2h0.1c0.9-1.5,2.4-2.3,4.3-2.3c1.5,0,2.8,0.6,3.8,1.8C85.7,31.9,86.2,33.5,86.2,35.4z M83.3,35.6
			c0-1.2-0.3-2.3-0.8-3.1c-0.6-0.8-1.4-1.3-2.5-1.3c-0.7,0-1.3,0.2-1.9,0.7c-0.6,0.5-0.9,1.1-1.1,1.8c-0.1,0.4-0.1,0.6-0.1,0.9v2.1
			c0,0.9,0.3,1.7,0.9,2.4s1.3,1,2.2,1c1.1,0,1.9-0.4,2.5-1.2C83,38,83.3,36.9,83.3,35.6z"/>
		<path class="st10" d="M100.9,35.4c0,2.2-0.6,3.9-1.8,5.2c-1.1,1.1-2.4,1.7-3.9,1.7c-1.7,0-2.9-0.6-3.6-1.8h-0.1v6.7h-2.8V33.4
			c0-1.4,0-2.8-0.1-4.2h2.5l0.2,2h0.1c0.9-1.5,2.4-2.3,4.3-2.3c1.5,0,2.8,0.6,3.8,1.8C100.4,31.9,100.9,33.5,100.9,35.4z M98,35.6
			c0-1.2-0.3-2.3-0.8-3.1c-0.6-0.8-1.4-1.3-2.5-1.3c-0.7,0-1.3,0.2-1.9,0.7c-0.6,0.5-0.9,1.1-1.1,1.8c-0.1,0.4-0.1,0.6-0.1,0.9v2.1
			c0,0.9,0.3,1.7,0.9,2.4c0.6,0.6,1.3,1,2.2,1c1.1,0,1.9-0.4,2.5-1.2C97.7,38,98,36.9,98,35.6z"/>
		<path class="st10" d="M117.4,37c0,1.5-0.5,2.7-1.6,3.7c-1.2,1-2.8,1.6-4.8,1.6c-1.9,0-3.4-0.4-4.6-1.1l0.7-2.4
			c1.2,0.8,2.6,1.1,4.1,1.1c1.1,0,1.9-0.2,2.5-0.7c0.6-0.5,0.9-1.1,0.9-1.9c0-0.7-0.2-1.3-0.7-1.8c-0.5-0.5-1.3-0.9-2.4-1.4
			c-3.1-1.2-4.7-2.9-4.7-5.1c0-1.5,0.5-2.7,1.6-3.6c1.1-0.9,2.5-1.4,4.3-1.4c1.6,0,3,0.3,4,0.8l-0.7,2.3c-1-0.5-2.1-0.8-3.4-0.8
			c-1,0-1.8,0.2-2.3,0.7c-0.5,0.4-0.7,1-0.7,1.6c0,0.7,0.3,1.3,0.8,1.7c0.5,0.4,1.3,0.9,2.6,1.4c1.5,0.6,2.6,1.3,3.4,2.2
			C117,34.8,117.4,35.8,117.4,37z"/>
		<path class="st10" d="M126.8,31.3h-3.1v6.2c0,1.6,0.6,2.4,1.7,2.4c0.5,0,0.9,0,1.3-0.1l0.1,2.2c-0.6,0.2-1.3,0.3-2.2,0.3
			c-1.1,0-2-0.3-2.6-1c-0.6-0.7-0.9-1.8-0.9-3.4v-6.4H119v-2.1h1.9v-2.3l2.8-0.8v3.2h3.1C126.8,29.2,126.8,31.3,126.8,31.3z"/>
		<path class="st10" d="M140.9,35.5c0,2-0.6,3.6-1.7,4.8c-1.2,1.3-2.7,1.9-4.7,1.9c-1.9,0-3.4-0.6-4.5-1.9c-1.1-1.2-1.7-2.8-1.7-4.7
			c0-2,0.6-3.6,1.7-4.9c1.1-1.3,2.7-1.9,4.6-1.9c1.9,0,3.4,0.6,4.5,1.9C140.4,32,140.9,33.6,140.9,35.5z M138,35.6
			c0-1.2-0.3-2.2-0.8-3c-0.6-1-1.4-1.5-2.6-1.5c-1.1,0-2,0.5-2.6,1.5c-0.5,0.8-0.8,1.9-0.8,3.1c0,1.2,0.3,2.2,0.8,3
			c0.6,1,1.5,1.5,2.6,1.5c1.1,0,1.9-0.5,2.6-1.6C137.7,37.8,138,36.8,138,35.6z"/>
		<path class="st10" d="M150.2,31.7c-0.3-0.1-0.6-0.1-0.9-0.1c-1,0-1.8,0.4-2.3,1.1c-0.5,0.7-0.7,1.5-0.7,2.5V42h-2.8l0-8.8
			c0-1.5,0-2.8-0.1-4h2.5l0.1,2.4h0.1c0.3-0.8,0.8-1.5,1.4-2c0.6-0.5,1.3-0.7,2.1-0.7c0.3,0,0.5,0,0.7,0.1
			C150.2,29,150.2,31.7,150.2,31.7z"/>
		<path class="st10" d="M162.9,35c0,0.5,0,0.9-0.1,1.3h-8.5c0,1.3,0.4,2.2,1.2,2.9c0.7,0.6,1.6,0.9,2.8,0.9c1.3,0,2.4-0.2,3.5-0.6
			l0.4,2c-1.2,0.5-2.6,0.8-4.3,0.8c-2,0-3.5-0.6-4.7-1.8c-1.1-1.2-1.7-2.7-1.7-4.7c0-1.9,0.5-3.5,1.6-4.8c1.1-1.4,2.6-2.1,4.5-2.1
			c1.8,0,3.2,0.7,4.2,2.1C162.5,32.1,162.9,33.4,162.9,35z M160.2,34.3c0-0.8-0.2-1.6-0.6-2.2c-0.5-0.8-1.2-1.2-2.3-1.2
			c-0.9,0-1.7,0.4-2.3,1.2c-0.5,0.6-0.8,1.4-0.8,2.2L160.2,34.3L160.2,34.3z"/>
	</g>
	<g>
		<g>
			<path class="st10" d="M65.4,13.3c0,1.6-0.5,2.8-1.4,3.5c-0.9,0.7-2.1,1.1-3.7,1.1c-0.8,0-1.5,0-2-0.1V9.3
				c0.7-0.1,1.5-0.2,2.4-0.2c1.5,0,2.7,0.3,3.5,1C65,10.9,65.4,11.9,65.4,13.3z M63.9,13.4c0-1-0.3-1.8-0.8-2.3
				c-0.5-0.5-1.3-0.8-2.4-0.8c-0.4,0-0.8,0-1.1,0.1v6.5c0.2,0,0.5,0,0.9,0c1.1,0,1.9-0.3,2.5-0.9S63.9,14.5,63.9,13.4z"/>
			<path class="st10" d="M73.2,14.7c0,1-0.3,1.8-0.8,2.4c-0.6,0.6-1.3,1-2.3,1c-0.9,0-1.7-0.3-2.2-0.9c-0.5-0.6-0.8-1.4-0.8-2.3
				c0-1,0.3-1.8,0.8-2.4c0.6-0.6,1.3-0.9,2.3-0.9c0.9,0,1.7,0.3,2.2,0.9C72.9,13,73.2,13.8,73.2,14.7z M71.8,14.8
				c0-0.6-0.1-1.1-0.4-1.5c-0.3-0.5-0.7-0.8-1.3-0.8c-0.6,0-1,0.3-1.3,0.8c-0.3,0.4-0.4,0.9-0.4,1.5c0,0.6,0.1,1.1,0.4,1.5
				c0.3,0.5,0.7,0.8,1.3,0.8c0.5,0,1-0.3,1.3-0.8C71.6,15.8,71.8,15.3,71.8,14.8z"/>
			<path class="st10" d="M83.7,11.6l-2,6.3h-1.3l-0.8-2.7c-0.2-0.7-0.4-1.4-0.5-2h0c-0.1,0.7-0.3,1.4-0.5,2l-0.9,2.7h-1.3l-1.8-6.3
				H76l0.7,3c0.2,0.7,0.3,1.4,0.4,2h0c0.1-0.5,0.3-1.2,0.5-2l0.9-3h1.1l0.9,2.9c0.2,0.7,0.4,1.4,0.5,2.1h0c0.1-0.6,0.2-1.3,0.4-2.1
				l0.8-2.9L83.7,11.6L83.7,11.6z"/>
			<path class="st10" d="M90.9,17.9h-1.4v-3.6c0-1.1-0.4-1.7-1.3-1.7c-0.4,0-0.7,0.2-1,0.5c-0.3,0.3-0.4,0.7-0.4,1.1v3.7h-1.4v-4.5
				c0-0.6,0-1.2-0.1-1.8h1.2l0.1,1h0c0.2-0.3,0.4-0.6,0.7-0.8c0.4-0.2,0.8-0.4,1.3-0.4c0.6,0,1.1,0.2,1.5,0.6
				c0.5,0.5,0.7,1.2,0.7,2.1V17.9z"/>
			<path class="st10" d="M94.8,17.9h-1.4V8.7h1.4V17.9z"/>
			<path class="st10" d="M103,14.7c0,1-0.3,1.8-0.8,2.4c-0.6,0.6-1.3,1-2.3,1c-0.9,0-1.7-0.3-2.2-0.9c-0.5-0.6-0.8-1.4-0.8-2.3
				c0-1,0.3-1.8,0.8-2.4s1.3-0.9,2.3-0.9c0.9,0,1.7,0.3,2.2,0.9C102.7,13,103,13.8,103,14.7z M101.6,14.8c0-0.6-0.1-1.1-0.4-1.5
				c-0.3-0.5-0.7-0.8-1.3-0.8c-0.6,0-1,0.3-1.3,0.8c-0.3,0.4-0.4,0.9-0.4,1.5c0,0.6,0.1,1.1,0.4,1.5c0.3,0.5,0.7,0.8,1.3,0.8
				c0.5,0,1-0.3,1.3-0.8C101.4,15.8,101.6,15.3,101.6,14.8z"/>
			<path class="st10" d="M109.8,17.9h-1.3l-0.1-0.7h0c-0.4,0.6-1,0.9-1.8,0.9c-0.6,0-1.1-0.2-1.4-0.6c-0.3-0.3-0.5-0.8-0.5-1.3
				c0-0.8,0.3-1.4,1-1.8c0.6-0.4,1.5-0.6,2.7-0.6v-0.1c0-0.8-0.4-1.2-1.3-1.2c-0.6,0-1.2,0.2-1.6,0.5l-0.3-0.9
				c0.6-0.4,1.3-0.5,2.2-0.5c1.6,0,2.5,0.9,2.5,2.6v2.3C109.7,17,109.7,17.5,109.8,17.9z M108.3,15.8v-1c-1.5,0-2.3,0.4-2.3,1.3
				c0,0.3,0.1,0.6,0.3,0.7c0.2,0.2,0.4,0.2,0.7,0.2c0.3,0,0.6-0.1,0.9-0.3c0.3-0.2,0.4-0.4,0.5-0.7
				C108.3,15.9,108.3,15.8,108.3,15.8z"/>
			<path class="st10" d="M117.7,17.9h-1.2l-0.1-1h0c-0.4,0.8-1.1,1.2-2,1.2c-0.8,0-1.4-0.3-1.9-0.9c-0.5-0.6-0.7-1.4-0.7-2.3
				c0-1,0.3-1.8,0.8-2.5c0.5-0.6,1.2-0.9,1.9-0.9c0.8,0,1.4,0.3,1.8,0.9h0V8.7h1.4v7.5C117.7,16.8,117.7,17.4,117.7,17.9z
				 M116.3,15.3v-1c0-0.2,0-0.3,0-0.4c-0.1-0.3-0.2-0.6-0.5-0.8c-0.3-0.2-0.6-0.3-0.9-0.3c-0.5,0-0.9,0.2-1.2,0.6
				c-0.3,0.4-0.4,0.9-0.4,1.6c0,0.6,0.1,1.1,0.4,1.5c0.3,0.4,0.7,0.6,1.2,0.6c0.5,0,0.8-0.2,1.1-0.5
				C116.1,16.1,116.3,15.7,116.3,15.3z"/>
			<path class="st10" d="M129.7,14.7c0,1-0.3,1.8-0.8,2.4c-0.6,0.6-1.3,1-2.3,1c-0.9,0-1.7-0.3-2.2-0.9c-0.5-0.6-0.8-1.4-0.8-2.3
				c0-1,0.3-1.8,0.8-2.4s1.3-0.9,2.3-0.9c0.9,0,1.7,0.3,2.2,0.9C129.4,13,129.7,13.8,129.7,14.7z M128.2,14.8c0-0.6-0.1-1.1-0.4-1.5
				c-0.3-0.5-0.7-0.8-1.3-0.8c-0.6,0-1,0.3-1.3,0.8c-0.3,0.4-0.4,0.9-0.4,1.5c0,0.6,0.1,1.1,0.4,1.5c0.3,0.5,0.7,0.8,1.3,0.8
				c0.5,0,1-0.3,1.3-0.8C128.1,15.8,128.2,15.3,128.2,14.8z"/>
			<path class="st10" d="M137.2,17.9h-1.4v-3.6c0-1.1-0.4-1.7-1.3-1.7c-0.4,0-0.7,0.2-1,0.5c-0.3,0.3-0.4,0.7-0.4,1.1v3.7h-1.4v-4.5
				c0-0.6,0-1.2,0-1.8h1.2l0.1,1h0c0.2-0.3,0.4-0.6,0.7-0.8c0.4-0.2,0.8-0.4,1.3-0.4c0.6,0,1.1,0.2,1.5,0.6c0.5,0.5,0.7,1.2,0.7,2.1
				V17.9z"/>
			<path class="st10" d="M146.6,12.7H145v3.1c0,0.8,0.3,1.2,0.8,1.2c0.3,0,0.5,0,0.6-0.1l0,1.1c-0.3,0.1-0.6,0.2-1.1,0.2
				c-0.6,0-1-0.2-1.3-0.5c-0.3-0.3-0.5-0.9-0.5-1.7v-3.2h-0.9v-1h0.9v-1.2l1.4-0.4v1.6h1.5L146.6,12.7L146.6,12.7z"/>
			<path class="st10" d="M154,17.9h-1.4v-3.6c0-1.1-0.4-1.7-1.3-1.7c-0.6,0-1.1,0.3-1.3,1c0,0.1-0.1,0.3-0.1,0.5v3.8h-1.4V8.7h1.4
				v3.8h0c0.4-0.7,1.1-1,1.9-1c0.6,0,1.1,0.2,1.4,0.6c0.5,0.5,0.7,1.2,0.7,2.1C154,14.2,154,17.9,154,17.9z"/>
			<path class="st10" d="M161.6,14.5c0,0.3,0,0.5-0.1,0.6h-4.2c0,0.6,0.2,1.1,0.6,1.4c0.4,0.3,0.8,0.4,1.4,0.4
				c0.6,0,1.2-0.1,1.7-0.3l0.2,1c-0.6,0.3-1.3,0.4-2.1,0.4c-1,0-1.7-0.3-2.3-0.9c-0.6-0.6-0.8-1.3-0.8-2.3c0-0.9,0.3-1.7,0.8-2.4
				c0.5-0.7,1.3-1,2.2-1c0.9,0,1.6,0.3,2.1,1C161.4,13,161.6,13.7,161.6,14.5z M160.3,14.1c0-0.4-0.1-0.8-0.3-1.1
				c-0.2-0.4-0.6-0.6-1.1-0.6c-0.5,0-0.8,0.2-1.1,0.6c-0.2,0.3-0.4,0.7-0.4,1.1C157.4,14.1,160.3,14.1,160.3,14.1z"/>
		</g>
	</g>
</g>
</svg>
