<svg width="140" height="28" viewBox="0 0 140 28" fill="none" xmlns="http://www.w3.org/2000/svg">
<path d="M31.58 0.07C29.4 0 19.94 0 14.42 0H0V5.19C11.6 5.19 25.38 5.19 31.41 5.25C32.4845 5.16142 33.5536 5.47503 34.41 6.13C34.7948 6.46345 35.0696 6.90564 35.1981 7.39833C35.3266 7.89101 35.3029 8.41107 35.13 8.89C34.56 10.44 32.99 10.81 31.43 10.84C29.03 10.84 22.43 10.9 17.57 10.9H0V16.06C11.6 16.06 25.4 16.06 31.41 16.13C33.28 16.13 35.26 16.8 35.26 18.9C35.26 21 33.26 21.68 31.41 21.7C25.41 21.8 11.6 21.77 0 21.77V27C11.64 27 26.88 27.05 31.58 26.94C34.06 26.88 37.73 26.25 39.86 23.02C40.8291 21.5623 41.2485 19.8076 41.0433 18.0693C40.8382 16.3309 40.0218 14.722 38.74 13.53C40.0302 12.3347 40.8518 10.7183 41.0571 8.9715C41.2624 7.22468 40.8379 5.46191 39.86 4C37.72 0.76 34.06 0.14 31.58 0.07ZM124.09 0.15C121 0.08 116.37 0 112.28 0C102.28 0 108.28 0 98.78 0V5.2C108.92 5.2 116.01 5.12 123.78 5.33C126.246 5.23349 128.684 5.87785 130.78 7.18C131.805 7.87804 132.644 8.816 133.224 9.91226C133.803 11.0085 134.107 12.2299 134.107 13.47C134.107 14.7101 133.803 15.9315 133.224 17.0277C132.644 18.124 131.805 19.062 130.78 19.76C128.684 21.0633 126.246 21.7077 123.78 21.61C115.96 21.82 108.85 21.74 98.73 21.74V26.94C108.92 26.94 116.24 26.94 124.04 26.79C127.16 26.72 131.04 26.36 134.55 23.79C136.217 22.6226 137.578 21.0706 138.518 19.2654C139.457 17.4602 139.948 15.4551 139.948 13.42C139.948 11.3849 139.457 9.3798 138.518 7.57462C137.578 5.76944 136.217 4.21739 134.55 3.05C131.06 0.58 127.21 0.22 124.09 0.15ZM53.32 8C53.32 5.5 53.32 2.54 53.32 0H47.32C47.32 2.56 47.32 7.76 47.37 10.28C47.58 15.15 49.16 16.67 54.15 16.85C57.61 16.97 60.34 16.93 65.15 16.91V11.69C61.32 11.69 59.76 11.69 56.94 11.69C54.12 11.69 53.33 10.71 53.32 8ZM75.48 11.69C78.28 11.69 81.7 11.69 82.99 11.69C85.71 11.64 86.57 10.77 86.58 8.14V0H92.58V7.87C92.58 8.78 92.58 9.62 92.58 10.28C92.38 15.19 90.77 16.68 85.48 16.85C83.76 16.91 79.18 16.91 75.48 16.91H74.77V27H67.77V11.69H75.48Z" fill="white"/>
</svg>
